<svg xmlns="http://www.w3.org/2000/svg" viewBox="0 0 1200 330">
<g fill="none" stroke="#000" stroke-width="1.7" stroke-linecap="round">
  <g><path d="M70 330C48 246 39 196 57 144"/><g transform="translate(62.3 270.5) rotate(-24)"><path d="M0 0C5.2 -4.2 12.0 -3.3 15.0 0 12.0 3.3 5.2 4.2 0 0Z"/></g><g transform="translate(56.0 222.1) rotate(204)"><path d="M0 0C5.2 -4.2 12.0 -3.3 15.0 0 12.0 3.3 5.2 4.2 0 0Z"/></g><g transform="translate(57 144)"><circle cx="0" cy="0" r="4.5"/><ellipse cx="0.0" cy="-13.0" rx="4.5" ry="9.0" transform="rotate(0 0.0 -13.0)"/><ellipse cx="9.2" cy="-9.2" rx="4.5" ry="9.0" transform="rotate(45 9.2 -9.2)"/><ellipse cx="13.0" cy="-0.0" rx="4.5" ry="9.0" transform="rotate(90 13.0 -0.0)"/><ellipse cx="9.2" cy="9.2" rx="4.5" ry="9.0" transform="rotate(135 9.2 9.2)"/><ellipse cx="0.0" cy="13.0" rx="4.5" ry="9.0" transform="rotate(180 0.0 13.0)"/><ellipse cx="-9.2" cy="9.2" rx="4.5" ry="9.0" transform="rotate(225 -9.2 9.2)"/><ellipse cx="-13.0" cy="0.0" rx="4.5" ry="9.0" transform="rotate(270 -13.0 0.0)"/><ellipse cx="-9.2" cy="-9.2" rx="4.5" ry="9.0" transform="rotate(315 -9.2 -9.2)"/></g></g>
  <g><path d="M150 330C164 272 170 238 158 202"/><g transform="translate(154.9 289.0) rotate(-24)"><path d="M0 0C4.7 -3.8 10.8 -3.0 13.5 0 10.8 3.0 4.7 3.8 0 0Z"/></g><g transform="translate(158.9 255.8) rotate(204)"><path d="M0 0C4.7 -3.8 10.8 -3.0 13.5 0 10.8 3.0 4.7 3.8 0 0Z"/></g><g transform="translate(158 202)"><path d="M0 0C-8.1 -10.5 -4.5 -21.1 0 -23.4C4.5 -21.1 8.1 -10.5 0 0Z"/><path d="M0 -21.5V-4.7"/></g></g>
  <g><path d="M215 330C203 228 198 167 208 104"/><g transform="translate(210.8 257.7) rotate(-24)"><path d="M0 0C5.2 -4.2 12.0 -3.3 15.0 0 12.0 3.3 5.2 4.2 0 0Z"/></g><g transform="translate(207.3 198.9) rotate(204)"><path d="M0 0C5.2 -4.2 12.0 -3.3 15.0 0 12.0 3.3 5.2 4.2 0 0Z"/></g><g transform="translate(208 104)"><path d="M0 0L-4.2 16.5"/><circle cx="-4.2" cy="16.5" r="1.5"/><path d="M0 0L-12.5 11.5"/><circle cx="-12.5" cy="11.5" r="1.5"/><path d="M0 0L-16.8 2.8"/><circle cx="-16.8" cy="2.8" r="1.5"/><path d="M0 0L-15.6 -6.8"/><circle cx="-15.6" cy="-6.8" r="1.5"/><path d="M0 0L-9.3 -14.2"/><circle cx="-9.3" cy="-14.2" r="1.5"/><path d="M0 0L0.0 -17.0"/><circle cx="0.0" cy="-17.0" r="1.5"/><path d="M0 0L9.3 -14.2"/><circle cx="9.3" cy="-14.2" r="1.5"/><path d="M0 0L15.6 -6.8"/><circle cx="15.6" cy="-6.8" r="1.5"/><path d="M0 0L16.8 2.8"/><circle cx="16.8" cy="2.8" r="1.5"/><path d="M0 0L12.5 11.5"/><circle cx="12.5" cy="11.5" r="1.5"/><path d="M0 0L4.2 16.5"/><circle cx="4.2" cy="16.5" r="1.5"/></g></g>
  <g><path d="M300 330C318 259 325 216 311 172"/><g transform="translate(306.3 279.4) rotate(-24)"><path d="M0 0C5.0 -4.0 11.4 -3.1 14.2 0 11.4 3.1 5.0 4.0 0 0Z"/></g><g transform="translate(311.5 238.4) rotate(204)"><path d="M0 0C5.0 -4.0 11.4 -3.1 14.2 0 11.4 3.1 5.0 4.0 0 0Z"/></g><g transform="translate(311 172)"><circle cx="0" cy="0" r="2.2"/><circle cx="0.0" cy="-8.5" r="5.3"/><circle cx="7.4" cy="-4.3" r="5.3"/><circle cx="7.4" cy="4.3" r="5.3"/><circle cx="0.0" cy="8.5" r="5.3"/><circle cx="-7.4" cy="4.3" r="5.3"/><circle cx="-7.4" cy="-4.3" r="5.3"/></g></g>
  <g><path d="M368 330C354 277 348 245 360 212"/><g transform="translate(363.1 292.2) rotate(-24)"><path d="M0 0C5.2 -4.2 12.0 -3.3 15.0 0 12.0 3.3 5.2 4.2 0 0Z"/></g><g transform="translate(359.1 261.6) rotate(204)"><path d="M0 0C5.2 -4.2 12.0 -3.3 15.0 0 12.0 3.3 5.2 4.2 0 0Z"/></g><g transform="translate(360 212)"><path d="M0 0.0q6.0 3.0 0 8.4q-6.0 -3.0 0 -8.4Z"/><path d="M0 -15.0q-6.0 3.0 0 8.4q6.0 -3.0 0 -8.4Z"/><path d="M0 -30.0q6.0 3.0 0 8.4q-6.0 -3.0 0 -8.4Z"/></g></g>
  <g><path d="M450 330C460 218 464 150 456 80"/><g transform="translate(453.5 250.0) rotate(-24)"><path d="M0 0C6.0 -4.8 13.8 -3.8 17.2 0 13.8 3.8 6.0 4.8 0 0Z"/></g><g transform="translate(456.4 185.0) rotate(204)"><path d="M0 0C6.0 -4.8 13.8 -3.8 17.2 0 13.8 3.8 6.0 4.8 0 0Z"/></g><g transform="translate(456 80)"><circle cx="0" cy="0" r="5.2"/><ellipse cx="0.0" cy="-15.0" rx="5.2" ry="10.3" transform="rotate(0 0.0 -15.0)"/><ellipse cx="10.6" cy="-10.6" rx="5.2" ry="10.3" transform="rotate(45 10.6 -10.6)"/><ellipse cx="15.0" cy="-0.0" rx="5.2" ry="10.3" transform="rotate(90 15.0 -0.0)"/><ellipse cx="10.6" cy="10.6" rx="5.2" ry="10.3" transform="rotate(135 10.6 10.6)"/><ellipse cx="0.0" cy="15.0" rx="5.2" ry="10.3" transform="rotate(180 0.0 15.0)"/><ellipse cx="-10.6" cy="10.6" rx="5.2" ry="10.3" transform="rotate(225 -10.6 10.6)"/><ellipse cx="-15.0" cy="0.0" rx="5.2" ry="10.3" transform="rotate(270 -15.0 0.0)"/><ellipse cx="-10.6" cy="-10.6" rx="5.2" ry="10.3" transform="rotate(315 -10.6 -10.6)"/></g></g>
  <g><path d="M536 330C518 262 511 222 525 180"/><g transform="translate(529.7 282.0) rotate(-24)"><path d="M0 0C5.5 -4.4 12.6 -3.5 15.8 0 12.6 3.5 5.5 4.4 0 0Z"/></g><g transform="translate(524.5 243.0) rotate(204)"><path d="M0 0C5.5 -4.4 12.6 -3.5 15.8 0 12.6 3.5 5.5 4.4 0 0Z"/></g><g transform="translate(525 180)"><path d="M0 0C-9.5 -12.3 -5.2 -24.6 0 -27.3C5.2 -24.6 9.5 -12.3 0 0Z"/><path d="M0 -25.1V-5.5"/></g></g>
  <g><path d="M604 330C616 242 621 189 611 134"/><g transform="translate(608.2 267.3) rotate(-24)"><path d="M0 0C4.5 -3.6 10.2 -2.8 12.8 0 10.2 2.8 4.5 3.6 0 0Z"/></g><g transform="translate(611.7 216.3) rotate(204)"><path d="M0 0C4.5 -3.6 10.2 -2.8 12.8 0 10.2 2.8 4.5 3.6 0 0Z"/></g><g transform="translate(611 134)"><circle cx="0" cy="0" r="2.0"/><circle cx="0.0" cy="-7.6" r="4.8"/><circle cx="6.6" cy="-3.8" r="4.8"/><circle cx="6.6" cy="3.8" r="4.8"/><circle cx="0.0" cy="7.6" r="4.8"/><circle cx="-6.6" cy="3.8" r="4.8"/><circle cx="-6.6" cy="-3.8" r="4.8"/></g></g>
  <g><path d="M688 330C678 272 674 238 682 202"/><g transform="translate(684.5 289.0) rotate(-24)"><path d="M0 0C4.7 -3.8 10.8 -3.0 13.5 0 10.8 3.0 4.7 3.8 0 0Z"/></g><g transform="translate(681.6 255.8) rotate(204)"><path d="M0 0C4.7 -3.8 10.8 -3.0 13.5 0 10.8 3.0 4.7 3.8 0 0Z"/></g><g transform="translate(682 202)"><path d="M0 0.0q5.4 2.7 0 7.6q-5.4 -2.7 0 -7.6Z"/><path d="M0 -13.5q-5.4 2.7 0 7.6q5.4 -2.7 0 -7.6Z"/><path d="M0 -27.0q5.4 2.7 0 7.6q-5.4 -2.7 0 -7.6Z"/></g></g>
  <g><path d="M760 330C776 223 782 159 770 92"/><g transform="translate(765.6 253.8) rotate(-24)"><path d="M0 0C4.7 -3.8 10.8 -3.0 13.5 0 10.8 3.0 4.7 3.8 0 0Z"/></g><g transform="translate(770.2 192.0) rotate(204)"><path d="M0 0C4.7 -3.8 10.8 -3.0 13.5 0 10.8 3.0 4.7 3.8 0 0Z"/></g><g transform="translate(770 92)"><circle cx="0" cy="0" r="4.0"/><ellipse cx="0.0" cy="-11.7" rx="4.0" ry="8.1" transform="rotate(0 0.0 -11.7)"/><ellipse cx="8.3" cy="-8.3" rx="4.0" ry="8.1" transform="rotate(45 8.3 -8.3)"/><ellipse cx="11.7" cy="-0.0" rx="4.0" ry="8.1" transform="rotate(90 11.7 -0.0)"/><ellipse cx="8.3" cy="8.3" rx="4.0" ry="8.1" transform="rotate(135 8.3 8.3)"/><ellipse cx="0.0" cy="11.7" rx="4.0" ry="8.1" transform="rotate(180 0.0 11.7)"/><ellipse cx="-8.3" cy="8.3" rx="4.0" ry="8.1" transform="rotate(225 -8.3 8.3)"/><ellipse cx="-11.7" cy="0.0" rx="4.0" ry="8.1" transform="rotate(270 -11.7 0.0)"/><ellipse cx="-8.3" cy="-8.3" rx="4.0" ry="8.1" transform="rotate(315 -8.3 -8.3)"/></g></g>
  <g><path d="M840 330C824 255 818 210 830 164"/><g transform="translate(834.4 276.9) rotate(-24)"><path d="M0 0C4.5 -3.6 10.2 -2.8 12.8 0 10.2 2.8 4.5 3.6 0 0Z"/></g><g transform="translate(829.8 233.7) rotate(204)"><path d="M0 0C4.5 -3.6 10.2 -2.8 12.8 0 10.2 2.8 4.5 3.6 0 0Z"/></g><g transform="translate(830 164)"><path d="M0 0L-3.6 14.0"/><circle cx="-3.6" cy="14.0" r="1.3"/><path d="M0 0L-10.7 9.8"/><circle cx="-10.7" cy="9.8" r="1.3"/><path d="M0 0L-14.3 2.4"/><circle cx="-14.3" cy="2.4" r="1.3"/><path d="M0 0L-13.2 -5.8"/><circle cx="-13.2" cy="-5.8" r="1.3"/><path d="M0 0L-7.9 -12.1"/><circle cx="-7.9" cy="-12.1" r="1.3"/><path d="M0 0L0.0 -14.4"/><circle cx="0.0" cy="-14.4" r="1.3"/><path d="M0 0L7.9 -12.1"/><circle cx="7.9" cy="-12.1" r="1.3"/><path d="M0 0L13.2 -5.8"/><circle cx="13.2" cy="-5.8" r="1.3"/><path d="M0 0L14.3 2.4"/><circle cx="14.3" cy="2.4" r="1.3"/><path d="M0 0L10.7 9.8"/><circle cx="10.7" cy="9.8" r="1.3"/><path d="M0 0L3.6 14.0"/><circle cx="3.6" cy="14.0" r="1.3"/></g></g>
  <g><path d="M918 330C930 236 935 180 925 122"/><g transform="translate(922.2 263.4) rotate(-24)"><path d="M0 0C5.5 -4.4 12.6 -3.5 15.8 0 12.6 3.5 5.5 4.4 0 0Z"/></g><g transform="translate(925.7 209.4) rotate(204)"><path d="M0 0C5.5 -4.4 12.6 -3.5 15.8 0 12.6 3.5 5.5 4.4 0 0Z"/></g><g transform="translate(925 122)"><circle cx="0" cy="0" r="2.5"/><circle cx="0.0" cy="-9.5" r="5.9"/><circle cx="8.2" cy="-4.7" r="5.9"/><circle cx="8.2" cy="4.7" r="5.9"/><circle cx="0.0" cy="9.5" r="5.9"/><circle cx="-8.2" cy="4.7" r="5.9"/><circle cx="-8.2" cy="-4.7" r="5.9"/></g></g>
  <g><path d="M996 330C984 271 979 235 989 198"/><g transform="translate(991.8 287.8) rotate(-24)"><path d="M0 0C5.0 -4.0 11.4 -3.1 14.2 0 11.4 3.1 5.0 4.0 0 0Z"/></g><g transform="translate(988.3 253.4) rotate(204)"><path d="M0 0C5.0 -4.0 11.4 -3.1 14.2 0 11.4 3.1 5.0 4.0 0 0Z"/></g><g transform="translate(989 198)"><path d="M0 0C-8.5 -11.1 -4.7 -22.2 0 -24.7C4.7 -22.2 8.5 -11.1 0 0Z"/><path d="M0 -22.7V-4.9"/></g></g>
  <g><path d="M1064 330C1080 247 1086 198 1074 146"/><g transform="translate(1069.6 271.1) rotate(-24)"><path d="M0 0C5.5 -4.4 12.6 -3.5 15.8 0 12.6 3.5 5.5 4.4 0 0Z"/></g><g transform="translate(1074.2 223.3) rotate(204)"><path d="M0 0C5.5 -4.4 12.6 -3.5 15.8 0 12.6 3.5 5.5 4.4 0 0Z"/></g><g transform="translate(1074 146)"><path d="M0 0.0q6.3 3.2 0 8.8q-6.3 -3.2 0 -8.8Z"/><path d="M0 -15.8q-6.3 3.2 0 8.8q6.3 -3.2 0 -8.8Z"/><path d="M0 -31.5q6.3 3.2 0 8.8q-6.3 -3.2 0 -8.8Z"/></g></g>
  <g><path d="M1140 330C1126 263 1120 223 1132 182"/><g transform="translate(1135.1 282.6) rotate(-24)"><path d="M0 0C4.2 -3.4 9.6 -2.6 12.0 0 9.6 2.6 4.2 3.4 0 0Z"/></g><g transform="translate(1131.1 244.2) rotate(204)"><path d="M0 0C4.2 -3.4 9.6 -2.6 12.0 0 9.6 2.6 4.2 3.4 0 0Z"/></g><g transform="translate(1132 182)"><circle cx="0" cy="0" r="3.6"/><ellipse cx="0.0" cy="-10.4" rx="3.6" ry="7.2" transform="rotate(0 0.0 -10.4)"/><ellipse cx="7.4" cy="-7.4" rx="3.6" ry="7.2" transform="rotate(45 7.4 -7.4)"/><ellipse cx="10.4" cy="-0.0" rx="3.6" ry="7.2" transform="rotate(90 10.4 -0.0)"/><ellipse cx="7.4" cy="7.4" rx="3.6" ry="7.2" transform="rotate(135 7.4 7.4)"/><ellipse cx="0.0" cy="10.4" rx="3.6" ry="7.2" transform="rotate(180 0.0 10.4)"/><ellipse cx="-7.4" cy="7.4" rx="3.6" ry="7.2" transform="rotate(225 -7.4 7.4)"/><ellipse cx="-10.4" cy="0.0" rx="3.6" ry="7.2" transform="rotate(270 -10.4 0.0)"/><ellipse cx="-7.4" cy="-7.4" rx="3.6" ry="7.2" transform="rotate(315 -7.4 -7.4)"/></g></g>
</g>
</svg>
