<svg xmlns="http://www.w3.org/2000/svg" viewBox="0 0 360 56">
  <g fill="none" stroke="#000" stroke-width="2.2" stroke-linecap="round">
    <path d="M14 28h60"/>
    <path d="M74 28c20 0 26-13 42-13 13 0 19 8 19 13"/>
    <path d="M135 28c-6 9-17 11-23 4-4-5-2-11 5-11"/>
    <path d="M346 28h-60"/>
    <path d="M286 28c-20 0-26-13-42-13-13 0-19 8-19 13"/>
    <path d="M225 28c6 9 17 11 23 4 4-5 2-11-5-11"/>
  </g>
  <g fill="#000" transform="translate(180 28)">
    <path d="M0-24c4 9 7 17 7 24h-14c0-7 3-15 7-24z"/>
    <path d="M-7-1c-9-8-19-3-17 7 2 9 11 10 17 3z"/>
    <path d="M7-1c9-8 19-3 17 7-2 9-11 10-17 3z"/>
    <rect x="-13" y="6" width="26" height="5" rx="1.5"/>
    <path d="M-9 13c0 7 4 12 9 15 5-3 9-8 9-15z"/>
  </g>
</svg>
